<svg width="991" height="728" viewBox="0 0 991 728" fill="none" xmlns="http://www.w3.org/2000/svg">
<g opacity="0.3" clip-path="url(#clip0)">
<path opacity="0.1" d="M71.62 291.75C92.46 338.82 65.87 393.04 34.62 433.91C24.14 447.59 12.62 461.91 11.15 479.13C9.4 500.13 23.62 519.44 40.5 532.06C71.27 555.06 113.31 562.17 149.93 550.57C181.58 540.57 208.19 517.9 240.11 508.76C293.53 493.47 350.11 518.82 395.82 550.39C428.17 572.73 462.82 599.89 501.82 595.12C529.28 591.76 552.58 572.49 568.38 549.79C576.01 538.79 582.65 526.56 593.77 519.16C600.38 514.76 608.14 512.43 615.91 510.77C686.81 495.62 762.04 532.6 832 513.58C879.25 500.73 916.93 463.38 940.35 420.39C963.77 377.4 974.71 328.84 983.82 280.73C990.29 246.54 995.66 209.65 980.82 178.19C965.08 144.91 928.65 124.74 892.04 120.97C855.43 117.2 818.7 127.65 784.97 142.39C742.82 160.82 701.51 186.62 655.5 186.71C624.17 186.77 594.3 174.71 564.34 165.58C514.16 150.25 462.16 142.63 410.23 135.6C360.54 128.87 310.37 122.6 260.38 126.6C225.01 129.41 193.78 142.93 159.46 149.18C137.09 153.26 114.61 150.18 92.66 157.09C65.66 165.54 37.82 185.15 36.33 216C34.92 245.33 60.56 266.76 71.62 291.75Z" fill="#6C63FF"/>
<g opacity="0.5">
<path opacity="0.5" d="M697.89 183.16C692.89 184.6 686.68 188.32 683.64 198.53C677.64 218.53 691.52 232.21 686.97 252.98C685.726 258.502 683.342 263.703 679.97 268.25C674.4 275.8 668.34 279.38 662.48 284.67C655.031 291.426 649.694 300.191 647.11 309.91C644.278 320.637 644.041 331.884 646.42 342.72C648.51 351.78 652.07 358.37 655.17 365.72C659.03 375.099 662.042 384.804 664.17 394.72C665.352 399.539 666.023 404.47 666.17 409.43C666.27 415.66 665.3 422.43 664.35 429.11L655.88 488.22C654.75 496.09 653.61 504.09 653.57 511.58C653.51 520.23 654.9 527.66 656.28 534.91C659.28 550.55 662.45 566.78 669.28 575.03C676.11 583.28 687.69 580.42 694.82 563.58C701.6 547.58 701.74 526.18 707.72 509.06C717.14 482.06 735.88 478.46 746.27 452.73C756.27 428.05 753.19 397.73 758.27 369.61C761.89 349.44 769.6 331.04 774.17 311.11C780.74 282.4 780.09 252.6 774.84 230.54C769.59 208.48 760.17 193.33 749.77 181.84C745.36 176.97 740.65 172.64 735.11 172.21C729.22 171.76 724.11 179.21 718.26 181.4C711.48 183.93 704.72 181.22 697.89 183.16Z" fill="#6C63FF"/>
<path opacity="0.5" d="M729.78 173.61C729.78 173.61 719.78 428.89 677.85 579.43" stroke="#535461" stroke-width="2" stroke-miterlimit="10"/>
<path opacity="0.5" d="M683.38 199.78C683.38 199.78 728.16 240.59 719.71 318.35" stroke="#535461" stroke-width="2" stroke-miterlimit="10"/>
<path opacity="0.5" d="M645.76 315.9C645.76 315.9 719.36 330.7 713.9 374.72" stroke="#535461" stroke-width="2" stroke-miterlimit="10"/>
<path opacity="0.5" d="M774.93 229.93C774.93 229.93 745.16 256 718.62 329.84" stroke="#535461" stroke-width="2" stroke-miterlimit="10"/>
<path opacity="0.5" d="M745.82 453.1C745.82 453.1 725.5 469.1 709.19 413.29" stroke="#535461" stroke-width="2" stroke-miterlimit="10"/>
<path opacity="0.5" d="M658.16 485.65C658.16 485.65 699.6 480.24 703.42 454.28" stroke="#535461" stroke-width="2" stroke-miterlimit="10"/>
</g>
<path d="M798.06 11.9399C787.8 13.4599 775.46 18.2099 770.39 32.8799C760.44 61.6399 790.7 83.4099 783.73 113.46C781.64 122.46 776.49 129.78 771.06 135.12C760.42 145.58 748.31 150.12 736.81 157.22C725.31 164.32 713.37 175.46 707.98 192.57C702.79 209.03 705.04 227.22 710.43 240.81C715.82 254.4 723.98 264.53 731.27 275.71C740.147 289.473 747.571 304.122 753.42 319.42C756.03 326.15 758.42 333.25 759.27 341.31C760.21 350.5 759.02 360.39 757.84 370.07L747.32 456.07C745.92 467.52 744.51 479.17 745.32 490.2C746.23 502.93 749.99 514.03 753.7 524.87C761.7 548.25 770.26 572.54 785.33 585.49C800.4 598.44 824.08 595.61 836.82 571.65C848.95 548.84 846.72 517.39 857.06 492.89C873.36 454.28 911.71 451.16 930.16 414.51C947.87 379.35 937.96 334.37 945.07 293.51C950.17 264.23 963.96 238.06 971.07 209.25C981.27 167.74 976.4 123.79 962.9 90.6799C949.4 57.5699 928.12 34.1399 905.24 15.9899C895.54 8.2999 885.24 1.3499 873.76 0.0698999C861.52 -1.2901 851.76 9.0099 839.97 11.5999C826.27 14.6699 811.97 9.87989 798.06 11.9399Z" fill="#6C63FF"/>
<path d="M862.92 1.63989C862.92 1.63989 872.57 376.4 803.56 593.11" stroke="#535461" stroke-width="2" stroke-miterlimit="10"/>
<path d="M769.99 34.6799C769.99 34.6799 867.61 100.1 859.25 213.6" stroke="#535461" stroke-width="2" stroke-miterlimit="10"/>
<path d="M705.91 201.23C705.91 201.23 859.99 231.75 853.91 295.92" stroke="#535461" stroke-width="2" stroke-miterlimit="10"/>
<path d="M963.04 89.9399C963.04 89.9399 904.48 124.8 858.35 230.39" stroke="#535461" stroke-width="2" stroke-miterlimit="10"/>
<path d="M929.26 415.13C929.26 415.13 889.1 436.27 848.73 352.13" stroke="#535461" stroke-width="2" stroke-miterlimit="10"/>
<path d="M751.63 452.68C751.63 452.68 836.76 449.62 841.63 411.86" stroke="#535461" stroke-width="2" stroke-miterlimit="10"/>
<path opacity="0.1" d="M488.21 625.79C724.406 625.79 915.88 607.398 915.88 584.71C915.88 562.022 724.406 543.63 488.21 543.63C252.014 543.63 60.54 562.022 60.54 584.71C60.54 607.398 252.014 625.79 488.21 625.79Z" fill="#6C63FF"/>
<path d="M67.25 535.81C67.25 535.81 75.63 546.81 63.38 563.31C51.13 579.81 41.03 593.83 45.16 604.14C45.16 604.14 63.64 573.41 78.68 572.98C93.72 572.55 83.8 554.29 67.25 535.81Z" fill="#6C63FF"/>
<path opacity="0.1" d="M67.2499 535.81C67.9802 536.87 68.5559 538.028 68.9599 539.25C83.6399 556.49 91.4499 572.58 77.3499 572.99C64.2099 573.37 48.4499 596.86 44.6699 602.8C44.7947 603.258 44.9449 603.709 45.1199 604.15C45.1199 604.15 63.5999 573.42 78.6399 572.99C93.6799 572.56 83.7999 554.29 67.2499 535.81Z" fill="black"/>
<path d="M82.8301 549.78C82.8301 553.64 82.4001 556.78 81.8301 556.78C81.2601 556.78 80.8301 553.65 80.8301 549.78C80.8301 545.91 81.3701 547.78 81.9001 547.78C82.4301 547.78 82.8301 545.92 82.8301 549.78Z" fill="#FFD037"/>
<path d="M88.1598 554.38C84.7698 556.23 81.8198 557.38 81.5698 556.87C81.3198 556.36 83.8498 554.52 87.2398 552.68C90.6298 550.84 89.2898 552.18 89.5498 552.68C89.8098 553.18 91.5598 552.52 88.1598 554.38Z" fill="#FFD037"/>
<path d="M22.9799 535.81C22.9799 535.81 14.5999 546.81 26.8499 563.31C39.0999 579.81 49.1599 593.83 45.1599 604.14C45.1599 604.14 26.6799 573.41 11.6399 572.98C-3.4001 572.55 6.4399 554.29 22.9799 535.81Z" fill="#6C63FF"/>
<path opacity="0.1" d="M22.98 535.81C22.2497 536.87 21.674 538.028 21.27 539.25C6.58998 556.49 -1.22002 572.58 12.88 572.99C26.02 573.37 41.78 596.86 45.56 602.8C45.4352 603.258 45.285 603.709 45.11 604.15C45.11 604.15 26.63 573.42 11.59 572.99C-3.45002 572.56 6.43998 554.29 22.98 535.81Z" fill="black"/>
<path d="M7.41016 549.78C7.41016 553.64 7.84016 556.78 8.41016 556.78C8.98016 556.78 9.41016 553.65 9.41016 549.78C9.41016 545.91 8.87016 547.78 8.34016 547.78C7.81016 547.78 7.41016 545.92 7.41016 549.78Z" fill="#FFD037"/>
<path d="M2.05997 554.38C5.44998 556.23 8.39997 557.38 8.64997 556.87C8.89997 556.36 6.36997 554.52 2.97997 552.68C-0.410027 550.84 0.929975 552.18 0.669975 552.68C0.409975 553.18 -1.33003 552.52 2.05997 554.38Z" fill="#FFD037"/>
<path d="M10.0698 602.71C10.0698 602.71 33.4998 601.99 40.5598 596.96C47.6198 591.93 76.5598 585.96 78.3498 593.96C80.1398 601.96 113.56 634.07 87.1098 634.28C60.6598 634.49 25.6498 630.16 18.5998 625.87C11.5498 621.58 10.0698 602.71 10.0698 602.71Z" fill="#A8A8A8"/>
<path opacity="0.2" d="M87.5901 631.52C61.1401 631.73 26.1301 627.4 19.0801 623.11C13.7101 619.84 11.5701 608.11 10.8601 602.7H10.0801C10.0801 602.7 11.5601 621.6 18.6101 625.89C25.6601 630.18 60.6701 634.52 87.1601 634.31C94.8001 634.25 97.4301 631.53 97.2901 627.51C96.1601 629.94 93.2701 631.46 87.5901 631.52Z" fill="black"/>
<path d="M315.03 450.95C315.03 450.95 432.28 376.04 513.34 376.04C513.34 376.04 610.93 360.84 717.08 386.53C823.23 412.22 862.44 445.53 891.87 435.75L768.23 439.37L315.03 450.95Z" fill="#8CD0F3"/>
<path opacity="0.1" d="M315.03 450.95C315.03 450.95 432.28 376.04 513.34 376.04C513.34 376.04 610.93 360.84 717.08 386.53C823.23 412.22 862.44 445.53 891.87 435.75L768.23 439.37L315.03 450.95Z" fill="#8CD0F3"/>
<path d="M867.68 565.6H152.6L172.26 486.83L293.86 454.5L867.68 469.58V565.6Z" fill="#121C3F"/>
<path d="M905.32 516.38V541.52C905.32 541.52 884.09 556.92 882.16 568.98C882.16 568.98 851.76 576.7 843.08 576.7C842.29 576.7 841.43 576.7 840.53 576.79C841.886 573.151 842.946 569.409 843.7 565.6C845.829 554.911 845.561 543.882 842.915 533.309C840.269 522.736 835.31 512.881 828.397 504.455C821.484 496.029 812.788 489.241 802.935 484.581C793.083 479.92 782.319 477.502 771.42 477.502C760.521 477.502 749.757 479.92 739.905 484.581C730.052 489.241 721.356 496.029 714.443 504.455C707.529 512.881 702.571 522.736 699.925 533.309C697.279 543.882 697.011 554.911 699.14 565.6C700.163 570.753 701.735 575.782 703.83 580.6H662.61C662.61 580.6 662.23 580.73 661.61 581C659.4 582 654.19 584.64 653.44 588.79H311.83L304.83 588.73C306.318 586.233 307.653 583.648 308.83 580.99C311.025 576.067 312.655 570.91 313.69 565.62C315.723 555.517 315.617 545.101 313.378 535.042C311.139 524.983 306.817 515.504 300.691 507.218C294.565 498.931 286.77 492.02 277.809 486.931C268.849 481.841 258.921 478.685 248.666 477.668C238.411 476.65 228.057 477.792 218.27 481.02C208.484 484.249 199.483 489.493 191.847 496.413C184.211 503.333 178.11 511.777 173.937 521.2C169.764 530.622 167.612 540.815 167.62 551.12C167.62 555.978 168.095 560.825 169.04 565.59C170.651 573.659 173.606 581.399 177.78 588.49C172.9 587.3 162.25 583.92 162.25 583.92C162.25 583.92 116.9 579.1 105.32 568.92L107.07 567.71L114.49 562.64L111.11 549.64C110.702 549.092 110.366 548.494 110.11 547.86C109.21 545.69 108.42 541.66 111.6 536.6C116.42 528.88 114.01 501.38 114.01 501.38C114.01 501.38 179.63 456.03 308.94 445.89C308.94 445.89 312.03 448.29 318.41 448.79C322.73 449.14 328.56 448.61 335.97 445.89C335.97 445.89 346.58 450.71 391.97 424.66C391.97 424.66 469.18 371.58 570.51 376.42C570.51 376.42 674.73 370.14 763.51 404.42C801.77 419.18 830.88 427.05 851.63 431.21C870.79 435.06 882.82 435.77 888.33 435.83H888.45C890.25 435.83 891.32 435.83 891.7 435.83H891.86C891.86 435.83 891.86 447.32 892.47 460.89V460.96C892.69 465.68 892.99 470.65 893.41 475.48V475.78C894.57 489.23 896.57 501.45 900.04 503.87L905.32 516.38Z" fill="#2856B8"/>
<path d="M124.44 500.28C124.44 500.28 153.51 477.6 189.7 482.43C189.7 482.43 156.77 508.49 141.93 506.8L139.4 504.63L124.4 505.47C124.4 505.47 122.16 501.97 124.44 500.28Z" fill="#8CD0F3"/>
<path opacity="0.2" d="M152.66 539.52V552.91C152.66 552.91 151.66 565.7 140.11 566.18L107.11 567.81L114.52 562.74L111.14 549.74C110.73 549.197 110.394 548.601 110.14 547.97C113.14 545.21 120.21 540.55 134.59 539.55L152.66 539.52Z" fill="white"/>
<path opacity="0.2" d="M306.22 483.4L331.55 482.4C331.55 482.4 321.3 490.48 314.06 491.21C306.82 491.94 306.22 483.4 306.22 483.4Z" fill="white"/>
<path opacity="0.2" d="M359.54 560.24C359.54 560.24 588.61 528.39 643.98 538.52C643.98 538.52 660.26 539.61 666.42 546.12C672.58 552.63 666.42 548.41 666.42 548.41L359.54 560.24Z" fill="white"/>
<path opacity="0.5" d="M487.77 470.85C487.77 470.85 490.67 465.42 495.37 465.3L525.89 463.73C525.89 463.73 525.41 467.95 519.98 469.52L487.77 470.85Z" fill="#18218A"/>
<path opacity="0.5" d="M664.37 461.68C664.37 461.68 667.27 456.25 671.97 456.13L702.49 454.52C702.49 454.52 702.01 458.74 696.58 460.31L664.37 461.68Z" fill="#18218A"/>
<path d="M560.16 387.28L536.74 448.7L452.3 448.79H430.56H411.65H395.3H376.78C376.78 448.79 388.06 440.51 406.23 429.96C412.23 426.46 419.04 422.72 426.43 418.96C433.23 415.48 440.55 411.96 448.24 408.62C454.24 405.98 460.56 403.44 467.02 401.07C496.31 390.36 529.23 383.17 560.16 387.28Z" fill="#8CD0F3"/>
<path d="M692.84 432.13C692.84 432.13 657.56 437.36 623.89 441.23C611.02 442.71 598.39 443.99 588.05 444.7L586.61 444.8C582.61 445.06 578.9 445.23 575.75 445.29C570.75 445.38 567.01 445.16 565.14 444.56L574.87 385.81C574.87 385.81 586.87 385.94 604.62 386.81L608.5 387.02C612.19 387.23 616.08 387.47 620.14 387.75C625.94 388.15 632.05 388.63 638.35 389.21C668.77 392 703.23 397.01 725.05 406.03C771.48 425.25 692.84 432.13 692.84 432.13Z" fill="#8CD0F3"/>
<path d="M855.44 461.68V477.36C855.44 477.36 830.11 477.72 835.54 472.66C839.054 469.3 842.245 465.617 845.07 461.66L855.44 461.68Z" fill="#8CD0F3"/>
<path d="M893.39 475.76L872.82 477.37V458.52C872.82 458.52 882.35 445.13 891.88 459.97L892.43 460.84L893.39 475.76Z" fill="#8CD0F3"/>
<path d="M241.39 609.99C273.903 609.99 300.26 583.633 300.26 551.12C300.26 518.607 273.903 492.25 241.39 492.25C208.877 492.25 182.52 518.607 182.52 551.12C182.52 583.633 208.877 609.99 241.39 609.99Z" fill="#182A7C"/>
<path d="M288.61 551.07C288.632 563.218 283.986 574.91 275.634 583.73C267.282 592.551 255.86 597.827 243.73 598.467C231.599 599.108 219.685 595.065 210.45 587.174C201.215 579.282 195.364 568.145 194.105 556.062C192.847 543.98 196.277 531.876 203.687 522.25C211.098 512.625 221.922 506.213 233.925 504.34C245.927 502.467 258.19 505.275 268.181 512.185C278.172 519.095 285.127 529.579 287.61 541.47C288.269 544.628 288.604 547.844 288.61 551.07Z" fill="#3F8FFE"/>
<path opacity="0.5" d="M241.32 591.75C263.737 591.75 281.91 573.533 281.91 551.06C281.91 528.588 263.737 510.37 241.32 510.37C218.903 510.37 200.73 528.588 200.73 551.06C200.73 573.533 218.903 591.75 241.32 591.75Z" fill="#18218A"/>
<path d="M254.9 505.64V507.36L241.39 552.09L230.55 504.9C238.593 503.025 246.986 503.28 254.9 505.64Z" fill="#3F8FFE"/>
<path d="M254.8 596.52C247.062 598.812 238.868 599.094 230.99 597.34L241.38 552.09L254.8 596.52Z" fill="#3F8FFE"/>
<path d="M288.61 551.07C288.617 556.005 287.855 560.91 286.35 565.61H286.16L241.43 552.1L287.69 541.48C288.319 544.637 288.628 547.85 288.61 551.07Z" fill="#3F8FFE"/>
<path d="M241.39 552.09L196.66 565.6H196.31C193.819 557.79 193.375 549.471 195.02 541.44L241.39 552.09Z" fill="#3F8FFE"/>
<path d="M241.32 556.25C244.186 556.25 246.51 553.926 246.51 551.06C246.51 548.194 244.186 545.87 241.32 545.87C238.454 545.87 236.13 548.194 236.13 551.06C236.13 553.926 238.454 556.25 241.32 556.25Z" fill="#182A7C"/>
<path d="M771.06 609.99C803.573 609.99 829.93 583.633 829.93 551.12C829.93 518.607 803.573 492.25 771.06 492.25C738.547 492.25 712.19 518.607 712.19 551.12C712.19 583.633 738.547 609.99 771.06 609.99Z" fill="#182A7C"/>
<path d="M818.29 551.07C818.311 563.218 813.666 574.91 805.314 583.73C796.961 592.551 785.54 597.827 773.409 598.467C761.278 599.108 749.365 595.065 740.13 587.174C730.895 579.282 725.043 568.145 723.785 556.062C722.526 543.98 725.957 531.876 733.367 522.25C740.777 512.625 751.602 506.213 763.604 504.34C775.607 502.467 787.87 505.275 797.861 512.185C807.852 519.095 814.807 529.579 817.29 541.47C817.948 544.628 818.283 547.844 818.29 551.07Z" fill="#3F8FFE"/>
<path opacity="0.5" d="M771 591.75C793.417 591.75 811.59 573.533 811.59 551.06C811.59 528.588 793.417 510.37 771 510.37C748.583 510.37 730.41 528.588 730.41 551.06C730.41 573.533 748.583 591.75 771 591.75Z" fill="#18218A"/>
<path d="M784.57 505.64V507.36L771.06 552.09L760.22 504.9C768.263 503.025 776.655 503.28 784.57 505.64Z" fill="#3F8FFE"/>
<path d="M784.48 596.52C776.742 598.812 768.547 599.094 760.67 597.34L771.06 552.09L784.48 596.52Z" fill="#3F8FFE"/>
<path d="M818.29 551.07C818.297 556.005 817.534 560.91 816.03 565.61H815.8L771.06 552.09L817.32 541.47C817.967 544.629 818.292 547.845 818.29 551.07Z" fill="#3F8FFE"/>
<path d="M771.06 552.09L726.33 565.6H725.98C723.489 557.79 723.045 549.471 724.69 541.44L771.06 552.09Z" fill="#3F8FFE"/>
<path d="M771 556.25C773.866 556.25 776.19 553.926 776.19 551.06C776.19 548.194 773.866 545.87 771 545.87C768.134 545.87 765.81 548.194 765.81 551.06C765.81 553.926 768.134 556.25 771 556.25Z" fill="#182A7C"/>
<path opacity="0.2" d="M426.44 419.02L411.65 448.83H395.3L406.23 430.02C412.26 426.52 419.05 422.79 426.44 419.02Z" fill="white"/>
<path opacity="0.2" d="M467.02 401.13L452.29 448.8H430.55L448.25 408.66C454.29 406.04 460.57 403.52 467.02 401.13Z" fill="white"/>
<path opacity="0.2" d="M620.16 387.8L588.07 444.71L586.63 444.81C582.63 445.07 578.92 445.24 575.77 445.3L604.64 386.87L608.52 387.08C612.16 387.28 616.08 387.52 620.16 387.8Z" fill="white"/>
<path opacity="0.2" d="M377.34 448.63L359.02 574.82L512.03 571.47L537.15 449.18L377.34 448.63Z" stroke="white" stroke-miterlimit="10"/>
<path opacity="0.5" d="M661.62 580.96C659.41 581.96 654.2 584.6 653.45 588.75H311.83L304.83 588.69C306.318 586.193 307.654 583.608 308.83 580.95L661.62 580.96Z" fill="#18218A"/>
<path d="M366.27 672.15C368.6 669.98 370.79 667.42 371.47 664.31C372.15 661.2 370.82 657.46 367.84 656.31C364.51 655.03 360.94 657.31 358.24 659.68C355.54 662.05 352.44 664.68 348.91 664.18C350.728 662.531 352.088 660.439 352.857 658.109C353.627 655.778 353.779 653.287 353.3 650.88C353.145 649.886 352.724 648.953 352.08 648.18C350.23 646.18 346.87 647.05 344.66 648.61C337.66 653.61 335.66 663.14 335.61 671.76C334.9 668.65 335.5 665.41 335.48 662.22C335.46 659.03 334.59 655.5 331.9 653.78C330.225 652.88 328.341 652.438 326.44 652.5C323.27 652.38 319.74 652.7 317.58 655.02C314.89 657.9 315.58 662.73 317.93 665.9C320.28 669.07 323.83 671.06 327.1 673.25C329.725 674.815 331.964 676.951 333.65 679.5C333.85 679.856 334.014 680.231 334.14 680.62H354C358.453 678.363 362.581 675.514 366.27 672.15Z" fill="#6C63FF"/>
<path d="M781.36 688.97C783.193 687.476 784.528 685.46 785.19 683.19C785.69 680.89 784.71 678.14 782.51 677.3C780.05 676.36 777.42 678.06 775.43 679.79C773.44 681.52 771.15 683.48 768.54 683.11C769.881 681.894 770.885 680.351 771.453 678.632C772.021 676.913 772.133 675.076 771.78 673.3C771.667 672.564 771.356 671.873 770.88 671.3C769.51 669.84 767.04 670.47 765.4 671.62C760.2 675.28 758.75 682.34 758.72 688.7C758.2 686.41 758.64 684.02 758.62 681.7C758.6 679.38 757.96 676.7 755.98 675.48C754.752 674.82 753.373 674.493 751.98 674.53C749.64 674.44 747.04 674.68 745.44 676.39C743.44 678.51 743.97 682.08 745.7 684.39C747.43 686.7 750.05 688.19 752.47 689.81C754.41 690.963 756.064 692.539 757.31 694.42C757.457 694.681 757.577 694.956 757.67 695.24H772.32C775.602 693.567 778.643 691.458 781.36 688.97Z" fill="#6C63FF"/>
<path d="M846.36 720.78C848.193 719.286 849.528 717.27 850.19 715C850.69 712.7 849.71 709.95 847.51 709.11C845.05 708.17 842.42 709.87 840.43 711.6C838.44 713.33 836.15 715.29 833.54 714.92C834.881 713.704 835.885 712.161 836.453 710.442C837.021 708.723 837.133 706.886 836.78 705.11C836.667 704.374 836.356 703.683 835.88 703.11C834.51 701.65 832.04 702.28 830.4 703.43C825.2 707.09 823.75 714.15 823.72 720.51C823.2 718.22 823.64 715.83 823.62 713.51C823.6 711.19 822.96 708.51 820.98 707.29C819.752 706.63 818.373 706.303 816.98 706.34C814.64 706.25 812.04 706.49 810.44 708.2C808.44 710.32 808.97 713.89 810.7 716.2C812.43 718.51 815.05 720 817.47 721.62C819.41 722.773 821.064 724.349 822.31 726.23C822.457 726.491 822.577 726.766 822.67 727.05H837.32C840.602 725.378 843.643 723.268 846.36 720.78Z" fill="#6C63FF"/>
<path d="M658.43 653.93C658.43 653.93 654.94 655.83 653.35 645.07C652.35 638.07 649.44 623.64 647.53 614.27L647.29 613.08C647.837 612.908 648.375 612.708 648.9 612.48C648.9 612.48 637.78 569.48 640.32 559.96C642.86 550.44 640.32 533.38 640.32 533.38L633.65 510.92C633.65 510.92 617.13 505.22 610.78 503.64C604.43 502.06 586.64 490.98 586.64 490.98C586.946 491.335 587.233 491.706 587.5 492.09L586.79 491.66C585.493 490.447 584.32 489.107 583.29 487.66C586.839 483.885 589.136 479.108 589.87 473.98C592.243 469.479 593.364 464.423 593.114 459.341C592.864 454.258 591.253 449.337 588.45 445.09C589.531 443.738 590.354 442.199 590.88 440.55C591.092 439.796 591.183 439.013 591.15 438.23C591.266 436.975 590.994 435.715 590.372 434.619C589.75 433.523 588.807 432.644 587.67 432.1C586.912 431.784 586.097 431.626 585.275 431.635C584.453 431.643 583.642 431.819 582.89 432.15C581.48 432.79 580.37 433.99 578.83 434.31C576.26 434.84 574.06 432.78 572.04 431.25C568.901 428.91 565.156 427.522 561.25 427.25C559.555 427.06 557.838 427.286 556.25 427.91C554.742 428.764 553.35 429.809 552.11 431.02C547.53 434.71 541.11 435.74 535.36 437.75C534.26 438.13 533.04 438.75 532.84 439.75C532.799 439.948 532.799 440.152 532.84 440.35C532.794 440.604 532.814 440.866 532.9 441.11C522.18 442.91 511.69 451.05 511.69 451.05L509.93 452.68C509.355 452.369 508.701 452.232 508.049 452.287C507.397 452.342 506.775 452.587 506.26 452.99L502.72 455.77C502.08 456.271 501.645 456.989 501.498 457.788C501.351 458.588 501.501 459.414 501.92 460.11L476.03 484.11L475.47 484.63V484.54C475.47 484.54 455.47 499.73 455.47 510.48C455.47 518.25 461.47 523.04 464.74 525.11C461.807 527.869 459.59 531.302 458.28 535.11V535.21V535.35V535.46V535.58V535.68V535.79V535.89V535.99V536.08V536.17V536.25V536.34V536.41V536.52V536.62V536.68V536.74V537.18V537.3V537.54V537.71V537.88L458.2 538.32V538.5L458.15 538.8V538.92V539.21V539.42L458.08 539.82L457.99 540.32V540.42L457.92 540.84V541.04L457.84 541.5V541.62L457.75 542.14V542.37L457.52 543.68L457.4 544.39V544.51L457.27 545.24V545.34L457.14 546.08V546.14L457 546.92V547.09L456.86 547.86V548.03L456.73 548.79V548.88L456.58 549.74V549.9L456.24 551.82L456.07 552.82V552.97L455.9 553.97V554.04L455.53 556.04V556.21L455.35 557.21V557.35L454.96 559.46V559.55L454.76 560.62V560.71L454.36 562.89V563.03L454.16 564.11V564.19L453.74 566.42V566.54L453.53 567.64V567.72L453.1 569.98V570.07L452.89 571.17V571.26L451.06 573.52V573.62L450.84 574.71V574.77L450.39 576.99V577.05L450.17 578.13V578.19L449.73 580.31V580.4L449.52 581.4V581.49L449.09 583.49V583.56L448.88 584.56V584.66L448.46 586.55V586.6L448.26 587.49V587.58C448.12 588.18 447.984 588.76 447.85 589.32L447.65 590.14V590.21C447.517 590.757 447.387 591.28 447.26 591.78L447.07 592.5V592.58L446.89 593.27C446.09 596.27 445.39 598.27 444.89 598.74C444.384 599.271 443.986 599.896 443.72 600.58L443.64 600.78L443.56 601L443.49 601.22L443.16 601.52L443.09 601.75L443.03 601.96L442.97 602.2V602.42L442.92 602.66V602.88C442.92 603.04 442.894 603.2 442.84 603.36V603.56V603.83V604.04V604.31V604.52V604.79V605V605.27V605.47C442.84 605.8 442.84 606.12 442.84 606.47C442.84 606.53 442.84 606.59 442.84 606.66C442.84 606.73 442.84 606.83 442.84 606.92C442.84 607.01 442.84 607.05 442.84 607.11C442.84 607.17 442.84 607.28 442.84 607.36C442.84 607.44 442.84 607.48 442.84 607.55C442.84 607.62 442.84 607.71 442.84 607.79V607.97C442.84 608.05 442.84 608.13 442.84 608.21V608.37C442.84 608.517 442.84 608.66 442.84 608.8V610.38V610.6V611.23L445.84 612.14C445.84 612.14 447.35 612.97 449.68 614.05C449.35 624.14 448.42 637.8 445.89 646.16C440.25 646.45 426.32 647.04 423.8 646.03C420.62 644.76 400.29 641.6 406.65 656.15C409.31 662.25 415.1 666.85 420.92 670.15C420.2 670.387 419.465 670.577 418.72 670.72C413.54 671.72 412.1 673.45 412.3 675.23C411.93 678.23 417.03 681.58 417.45 681.79C418.09 682.11 439.68 685.59 444.77 684C449.86 682.41 470.5 678.62 470.5 678.62C470.5 678.62 470.5 678.39 470.5 677.99C470.5 677.99 470.22 671.77 469.44 665.87C471.78 665.53 474.33 665.22 476.81 665.03C477.129 666.526 477.785 667.929 478.727 669.133C479.67 670.338 480.875 671.311 482.25 671.98C495.91 678.98 500.36 669.45 500.36 669.45C500.36 669.45 518.83 673 529.15 670.45C530.23 671.45 531.15 672.16 531.8 672.64C535.15 675.05 544.17 676.7 554.26 676.82C556.946 677.085 559.654 677.008 562.32 676.59C566.773 676.296 571.191 675.603 575.52 674.52C587.67 671.37 590.34 660.07 590.92 654.94C591.4 654.8 591.74 654.3 591.92 653.36C592.16 652.848 592.303 652.295 592.34 651.73C592.606 649.408 593.04 647.109 593.64 644.85L608.64 645.69C615.34 657.85 621.26 667.52 621.26 667.52L631.42 666.25C626.901 662.633 622.941 658.366 619.67 653.59C614.59 646 614.59 609.59 614.59 609.59L615.16 587.42V587.65V586.58C616.1 593.15 623.55 612.21 624.39 612.49C625 612.69 625.6 612.87 626.19 613.04L626.73 614.46C630.97 625.7 641.73 654.46 642.49 659C643.49 664.7 683.15 666.91 692.04 664.06C700.93 661.21 658.43 653.93 658.43 653.93ZM516.76 528.01L502.22 549.85C497 540.85 491.56 532.57 486.64 527.09C499.54 527.52 514.41 527.98 516.76 528.01ZM514.55 472.01C515.114 472.276 515.741 472.38 516.36 472.312C516.98 472.243 517.569 472.003 518.06 471.62L519.3 470.62C519.933 470.128 520.368 469.425 520.524 468.639C520.68 467.852 520.547 467.036 520.15 466.34L520.89 465.61C526.01 464.743 531.063 463.517 536.01 461.94C536.198 466.454 537.467 470.858 539.71 474.78C540.153 477.29 540.975 479.718 542.15 481.98C539.87 481.79 537.39 481.66 535.02 481.68C532.95 481.638 530.879 481.768 528.83 482.07C521.21 483.34 520.25 497.26 520.25 497.26C520.25 497.26 504.94 502.64 495.74 502.83C494.574 502.835 493.415 502.663 492.3 502.32L491.37 502.26L492.62 498.84C492.62 498.84 492.08 499.01 491.19 499.19C491.477 498.757 491.777 498.317 492.09 497.87C497.91 489.52 507.99 478.76 514.55 472.03V472.01ZM483.09 640.96C481.919 642.963 480.867 645.033 479.94 647.16C476.33 647.86 471.41 648.25 468.8 646.02C467.622 645.056 466.143 644.535 464.62 644.55L464.68 644.43C466.48 640.98 468.01 633.25 469.21 625.25C475.03 625.25 480.56 620.38 480.56 620.38L487.89 622.89L488.16 623.4L488.34 623.73L488.63 624.27L488.81 624.61L489.1 625.14L489.29 625.48L489.58 626L489.77 626.34L490.05 626.85L490.24 627.19L490.53 627.7L490.72 628.03L491.01 628.53L491.19 628.85L491.48 629.35L491.66 629.66L491.94 630.15L492.12 630.46L492.41 630.95L492.58 631.23L492.87 631.71L493.04 631.99L493.33 632.47L493.48 632.72L493.78 633.21L493.89 633.39C494.41 634.24 494.89 635.05 495.38 635.81L495.45 635.92L495.73 636.36L495.85 636.55L496.1 636.95L496.24 637.16L496.47 637.52L496.61 637.75L496.82 638.08L496.97 638.31L497.17 638.62L497.31 638.84L497.49 639.12L497.63 639.34L497.8 639.6L497.94 639.82L498.1 640.06L498.24 640.27C493.235 641.096 488.15 641.327 483.09 640.96Z" fill="url(#paint0_linear)"/>
<path d="M688.52 662.26C679.85 665.05 641.14 662.88 640.21 657.26C639.47 652.79 628.98 624.66 624.84 613.66L623.18 609.26L643.31 604.92C643.31 604.92 644.05 608.45 645.07 613.48C646.93 622.66 649.74 636.83 650.74 643.63C652.29 654.16 655.74 652.3 655.74 652.3C655.74 652.3 697.16 659.47 688.52 662.26Z" fill="#FFBDC6"/>
<path d="M579.16 479.52C579.16 479.52 577.61 488.81 590.93 497.52C604.25 506.23 592.79 537.47 592.79 537.47L582.94 538.02C576.685 538.371 570.537 536.283 565.789 532.195C561.041 528.107 558.063 522.338 557.48 516.1C557.48 516.1 563.05 507.1 552.83 483.89L579.16 479.52Z" fill="#FFBDC6"/>
<path d="M521.6 468.09C521.6 468.09 502.43 486.78 493.52 499.66C492.464 501.154 491.499 502.71 490.63 504.32C484.13 516.71 469.01 496.57 474.24 489.61L477.85 486.24L512.61 453.84C512.61 453.84 536.46 435.26 548.53 448.58C560.6 461.9 521.6 468.09 521.6 468.09Z" fill="#FFBDC6"/>
<path d="M564.18 491.16C579.572 491.16 592.05 478.682 592.05 463.29C592.05 447.898 579.572 435.42 564.18 435.42C548.788 435.42 536.31 447.898 536.31 463.29C536.31 478.682 548.788 491.16 564.18 491.16Z" fill="#A66477"/>
<path d="M450.69 644.6C450.69 644.6 429.94 645.84 426.84 644.6C423.74 643.36 403.93 640.27 410.16 654.52C416.39 668.77 439.89 674.65 439.89 674.65L456.89 670.31L450.69 644.6Z" fill="#7679B4"/>
<path opacity="0.05" d="M450.69 644.6C450.69 644.6 429.94 645.84 426.84 644.6C423.74 643.36 403.93 640.27 410.16 654.52C416.39 668.77 439.89 674.65 439.89 674.65L456.89 670.31L450.69 644.6Z" fill="black"/>
<path d="M524.7 583.6L566.35 600.52L590.04 650.84C590.04 650.84 590.35 668.49 574.87 672.52C559.39 676.55 537.71 674.69 532.13 670.66C526.55 666.63 503.64 642.79 503.64 642.79L524.7 583.6Z" fill="#7679B4"/>
<path opacity="0.05" d="M521.87 583.6L557.92 597.11L578.43 637.38C578.43 637.38 578.7 651.51 565.3 654.73C551.9 657.95 533.13 656.46 528.3 653.24C523.47 650.02 503.64 630.93 503.64 630.93L521.87 583.6Z" fill="black"/>
<path d="M485.99 644.6C485.99 644.6 475.15 648.32 470.82 644.6C466.49 640.88 458.74 645.53 458.74 645.53L462.16 665.66C462.16 665.66 477.64 662.25 486.01 663.18L485.99 644.6Z" fill="#FFBDC6"/>
<path opacity="0.05" d="M485.99 644.6C485.99 644.6 475.15 648.32 470.82 644.6C466.49 640.88 458.74 645.53 458.74 645.53L462.16 665.66C462.16 665.66 477.64 662.25 486.01 663.18L485.99 644.6Z" fill="black"/>
<path d="M492.16 622.93L482.27 619.52C482.27 619.52 471.43 629.12 464.27 621.07C457.11 613.02 470.77 579.57 470.77 579.57L485.32 556.03L495.85 589.17L505.45 605.27L492.16 622.93Z" fill="#565388"/>
<path opacity="0.05" d="M492.16 622.93L482.27 619.52C482.27 619.52 471.43 629.12 464.27 621.07C457.11 613.02 470.77 579.57 470.77 579.57L485.32 556.03L495.85 589.17L505.45 605.27L492.16 622.93Z" fill="black"/>
<path d="M586.63 621.07L608.93 624.16L613.27 644.6L585.71 643.05L586.63 621.07Z" fill="#565388"/>
<path opacity="0.05" d="M586.63 621.07L608.93 624.16L613.27 644.6L585.71 643.05L586.63 621.07Z" fill="black"/>
<path opacity="0.1" d="M555.36 508.97C555.36 508.97 564.65 544.58 594.36 518.88L602.41 621.07C602.41 621.07 592.5 636.86 590.95 651.07C589.4 665.28 562.46 607.07 546.36 606.79C530.26 606.51 514.31 584.03 514.31 584.03L532.43 546.71L555.36 508.97Z" fill="black"/>
<path d="M555.67 508.04C555.67 508.04 564.96 543.65 594.67 517.95L602.72 620.14C602.72 620.14 592.81 635.93 591.26 650.14C589.71 664.35 562.77 606.14 546.67 605.86C530.57 605.58 514.62 583.1 514.62 583.1L532.74 545.78L555.67 508.04Z" fill="#F2F1F2"/>
<path opacity="0.1" d="M550.71 485.12C550.71 485.12 537.71 482.95 530.27 484.19C522.83 485.43 521.91 499.05 521.91 499.05C521.91 499.05 500.85 506.48 493.73 504.05C493.73 504.05 458.73 501.57 458.73 512.1C458.73 522.63 469.89 527.52 469.89 527.52C469.89 527.52 518.48 529.16 518.82 529.07C529.97 525.97 518.51 529.07 518.51 529.07L498.38 559.42L516.96 585.12L536.78 570.57C536.78 570.57 539.26 556.94 545.78 550.13C550.42 545.26 556.49 523.34 559.58 511.21C560.23 508.655 560.365 505.997 559.979 503.389C559.593 500.782 558.692 498.277 557.33 496.02L550.71 485.12Z" fill="black"/>
<path opacity="0.1" d="M493.52 499.66C492.464 501.154 491.499 502.71 490.63 504.32C484.13 516.71 469.01 496.57 474.24 489.61L477.85 486.24C476.53 502.22 489.54 500.52 493.52 499.66Z" fill="black"/>
<path opacity="0.1" d="M518.51 527.86H518.16C518.16 527.86 529.66 524.76 518.51 527.86Z" fill="black"/>
<path d="M549.78 485.12C549.78 485.12 536.78 482.95 529.34 484.19C521.9 485.43 520.98 499.05 520.98 499.05C520.98 499.05 499.92 506.48 492.8 504.05L494.04 500.64C494.04 500.64 475.16 506.52 477.32 486.67C477.32 486.67 457.81 501.53 457.81 512.06C457.81 522.59 468.96 527.52 468.96 527.52C468.96 527.52 517.55 529.16 517.89 529.07C529.04 525.97 517.58 529.07 517.58 529.07L497.45 559.42L516.03 585.12L535.85 570.57C535.85 570.57 538.33 556.94 544.85 550.13C549.49 545.26 555.56 523.34 558.65 511.21C559.3 508.655 559.435 505.997 559.049 503.389C558.663 500.782 557.762 498.277 556.4 496.02L549.78 485.12Z" fill="#565388"/>
<path opacity="0.1" d="M613.58 585.77V587.47C613.448 586.911 613.448 586.329 613.58 585.77Z" fill="black"/>
<path opacity="0.1" d="M645.07 613.52C638.488 615.547 631.457 615.61 624.84 613.7L623.18 609.3L643.31 604.96C643.31 604.96 644.04 608.52 645.07 613.52Z" fill="black"/>
<path opacity="0.1" d="M584.78 492.86C584.78 492.86 602.12 503.7 608.32 505.25C614.52 506.8 630.62 512.37 630.62 512.37L637.12 534.37C637.12 534.37 639.6 551.09 637.12 560.37C634.64 569.65 611.42 587.31 612.66 584.52L612.04 608.98C612.04 608.98 612.04 644.59 617.04 651.98C622.04 659.37 607.59 644.7 607.59 644.7C607.59 644.7 590.09 618.84 587.93 602.43C585.77 586.02 589.16 522.9 589.16 522.9L586.06 518.56C586.06 518.56 592.52 501.84 584.78 492.86Z" fill="black"/>
<path d="M585.71 492.86C585.71 492.86 603.05 503.7 609.25 505.25C615.45 506.8 631.55 512.37 631.55 512.37L638.05 534.37C638.05 534.37 640.53 551.09 638.05 560.37C635.57 569.65 646.41 611.78 646.41 611.78C646.41 611.78 636.41 616.4 622.56 611.78C621.63 611.47 612.34 587.32 613.56 584.53L612.94 608.99C612.94 608.99 612.94 644.6 617.94 651.99C621.128 656.663 624.99 660.838 629.4 664.38L619.49 665.62C619.49 665.62 590.97 618.9 588.8 602.52C586.63 586.14 590.04 522.93 590.04 522.93L586.94 518.59C586.94 518.59 593.45 501.84 585.71 492.86Z" fill="#565388"/>
<path d="M501.16 641.52C501.16 641.52 480.41 611.52 481.34 597.52C481.34 597.52 478.86 616.72 476.08 617.96C473.3 619.2 445.42 610.52 445.42 610.52C445.42 610.52 444.18 601.52 447.28 598.44C450.38 595.36 459.98 538.05 459.98 538.05C459.98 538.05 463.39 522.57 478.25 521.64C493.11 520.71 526.56 596.27 526.56 596.27C526.56 596.27 531.51 641.52 501.16 641.52Z" fill="#7679B4"/>
<path d="M452.24 600.63C452.24 600.63 452.86 643.98 445.12 651.11C437.38 658.24 467.73 661.95 467.73 661.95C467.73 661.95 462.47 651.42 466.8 643.06C471.13 634.7 473.92 600.63 473.92 600.63H452.24Z" fill="#FFBDC6"/>
<path opacity="0.05" d="M453.78 650.52C453.78 650.52 450.68 642.78 442.32 648.97C442.32 648.97 434.89 666.31 421.88 668.79C408.87 671.27 420.02 678.7 420.64 679.01C421.26 679.32 442.32 682.73 447.27 681.18C452.22 679.63 472.35 675.92 472.35 675.92C472.35 675.92 471.42 655.48 468.35 653.92C465.28 652.36 466.79 663.19 453.78 650.52Z" fill="black"/>
<path d="M453.78 651.11C453.78 651.11 450.68 643.37 442.32 649.56C442.32 649.56 434.89 666.9 421.88 669.38C408.87 671.86 420.02 679.29 420.64 679.6C421.26 679.91 442.32 683.32 447.27 681.77C452.22 680.22 472.36 676.52 472.36 676.52C472.36 676.52 471.43 656.08 468.36 654.52C465.29 652.96 466.79 663.8 453.78 651.11Z" fill="#7679B4"/>
<path d="M512.09 456.52C514.704 460.582 517.521 464.511 520.53 468.29C520.817 468.626 521.033 469.016 521.165 469.437C521.297 469.858 521.342 470.301 521.298 470.74C521.254 471.18 521.122 471.605 520.909 471.992C520.696 472.378 520.408 472.718 520.06 472.99L518.85 473.94C518.504 474.211 518.108 474.409 517.684 474.523C517.26 474.637 516.817 474.665 516.382 474.604C515.947 474.544 515.529 474.396 515.152 474.17C514.776 473.944 514.448 473.645 514.19 473.29C511.48 469.534 508.088 466.322 504.19 463.82C503.745 463.543 503.373 463.163 503.106 462.711C502.838 462.26 502.683 461.752 502.654 461.228C502.625 460.704 502.722 460.181 502.937 459.703C503.152 459.225 503.479 458.805 503.89 458.48L507.34 455.76C507.695 455.48 508.104 455.277 508.541 455.163C508.979 455.049 509.435 455.027 509.882 455.099C510.328 455.17 510.755 455.333 511.135 455.578C511.515 455.823 511.84 456.143 512.09 456.52Z" fill="#565388"/>
<path opacity="0.1" d="M582.75 490.52C578.75 484.89 579.51 480.43 579.51 480.43L553.16 484.81C554.99 488.895 556.495 493.118 557.66 497.44C562.072 498.729 566.756 498.765 571.188 497.543C575.619 496.32 579.623 493.889 582.75 490.52Z" fill="black"/>
<path d="M564.34 497.5C578.02 497.5 589.11 486.41 589.11 472.73C589.11 459.05 578.02 447.96 564.34 447.96C550.66 447.96 539.57 459.05 539.57 472.73C539.57 486.41 550.66 497.5 564.34 497.5Z" fill="#FFBDC6"/>
<path opacity="0.1" d="M553.44 459.82C555.78 459.43 557.86 458.06 560.23 457.94C563.23 457.79 565.94 459.71 568.05 461.69C570.16 463.67 572.21 465.93 575.11 466.79C576.963 467.224 578.875 467.353 580.77 467.17C581.823 467.223 582.869 466.958 583.77 466.41C584.223 465.989 584.567 465.464 584.77 464.88C585.578 463.017 585.988 461.006 585.973 458.975C585.957 456.945 585.517 454.94 584.68 453.09C584.446 452.707 584.347 452.256 584.4 451.81C584.49 451.545 584.637 451.303 584.83 451.1C586.83 448.74 588.94 446.38 589.75 443.52C590.56 440.66 589.57 437.14 586.62 435.87C585.884 435.553 585.091 435.389 584.29 435.389C583.489 435.389 582.696 435.553 581.96 435.87C580.58 436.5 579.51 437.67 577.96 437.98C575.45 438.5 573.3 436.48 571.34 434.98C568.286 432.691 564.637 431.33 560.83 431.06C559.165 430.869 557.478 431.092 555.92 431.71C554.464 432.535 553.12 433.543 551.92 434.71C547.45 438.32 541.19 439.33 535.59 441.3C534.52 441.68 533.33 442.24 533.13 443.3C532.93 444.36 534.13 445.43 535.33 445.89C536.53 446.35 537.91 446.65 538.71 447.58C539.71 448.78 539.39 450.48 539.57 451.99C539.94 454.99 542.57 456.62 545.48 457.49C547.89 458.26 551.05 460.22 553.44 459.82Z" fill="black"/>
<path d="M553.44 459.2C555.78 458.81 557.86 457.44 560.23 457.32C563.23 457.17 565.94 459.09 568.05 461.07C570.16 463.05 572.21 465.31 575.11 466.17C576.963 466.604 578.875 466.733 580.77 466.55C581.824 466.603 582.869 466.339 583.77 465.79C584.223 465.37 584.567 464.844 584.77 464.26C585.579 462.397 585.988 460.386 585.973 458.356C585.957 456.325 585.517 454.32 584.68 452.47C584.446 452.087 584.347 451.636 584.4 451.19C584.49 450.925 584.637 450.683 584.83 450.48C586.83 448.12 588.94 445.76 589.75 442.9C590.56 440.04 589.57 436.52 586.62 435.25C585.884 434.933 585.091 434.77 584.29 434.77C583.489 434.77 582.696 434.933 581.96 435.25C580.58 435.88 579.51 437.05 577.96 437.36C575.45 437.88 573.3 435.86 571.34 434.36C568.316 432.125 564.72 430.793 560.97 430.52C559.305 430.329 557.618 430.553 556.06 431.17C554.604 431.995 553.26 433.004 552.06 434.17C547.59 437.78 541.33 438.79 535.73 440.76C534.66 441.14 533.47 441.7 533.27 442.76C533.07 443.82 534.27 444.89 535.47 445.35C536.67 445.81 538.05 446.11 538.85 447.04C539.85 448.24 539.53 449.94 539.71 451.45C540.08 454.45 542.71 456.08 545.62 456.95C547.89 457.64 551.05 459.6 553.44 459.2Z" fill="#A66477"/>
<path opacity="0.05" d="M533.45 578.36C533.45 578.36 551.14 581.36 555.56 590.91C559.98 600.46 586.56 626.3 586.56 626.3" fill="black"/>
<g opacity="0.05">
<path opacity="0.05" d="M476.7 615.8C473.91 617.04 446.04 608.37 446.04 608.37C445.698 605.675 445.728 602.946 446.13 600.26C444.53 604.12 445.42 610.54 445.42 610.54C445.42 610.54 473.29 619.21 476.08 617.97C477 617.56 477.89 615.18 478.67 612.17C478.05 614.1 477.39 615.52 476.7 615.8Z" fill="black"/>
<path opacity="0.05" d="M460.56 536.15C460.332 536.779 460.138 537.42 459.98 538.07C459.98 538.07 453.26 578.2 449.25 593.07C452.96 581 459.96 539.72 460.56 536.15Z" fill="black"/>
<path opacity="0.05" d="M501.78 639.34C501.78 639.34 481.03 609.34 481.96 595.34C481.96 595.34 481.74 597.08 481.35 599.54C482.29 614.18 501.16 641.52 501.16 641.52C515.59 641.52 522.04 631.3 524.83 620.57C521.75 630.45 515.24 639.34 501.78 639.34Z" fill="black"/>
</g>
<path d="M448.33 611.43C448.33 611.43 467.25 621.85 474.07 616.89C480.89 611.93 476.55 604.19 476.55 604.19L471.28 595.52H453.63L447.75 605.74L448.33 611.43Z" fill="#7679B4"/>
<path d="M577.35 652.35C577.35 652.35 578.59 627.58 547 627.89C515.41 628.2 545.76 627.89 545.76 627.89C545.76 627.89 533.37 624.17 517.89 632.89C502.41 641.61 484.75 639.7 484.75 639.7C484.75 639.7 470.5 663.24 483.82 670.05C497.14 676.86 501.47 667.52 501.47 667.52C501.47 667.52 528.72 672.78 534.92 665.66C539.346 670.046 544.964 673.035 551.074 674.254C557.185 675.474 563.519 674.871 569.29 672.52C569.29 672.52 584.78 665.66 577.35 652.35Z" fill="#7679B4"/>
</g>
<defs>
<linearGradient id="paint0_linear" x1="549.32" y1="684.4" x2="549.32" y2="427.23" gradientUnits="userSpaceOnUse">
<stop stop-color="#808080" stop-opacity="0.25"/>
<stop offset="0.54" stop-color="#808080" stop-opacity="0.12"/>
<stop offset="1" stop-color="#808080" stop-opacity="0.1"/>
</linearGradient>
<clipPath id="clip0">
<rect width="990.32" height="727.03" fill="white"/>
</clipPath>
</defs>
</svg>
