<svg width="25" height="25" viewBox="0 0 41 44" fill="none" xmlns="http://www.w3.org/2000/svg">
<path d="M20.5 44C17.724 44 15.068 43.4199 12.5322 42.2598C9.99642 41.0996 7.81429 39.5384 5.98584 37.5762C4.15739 35.6139 2.70264 33.2721 1.62158 30.5508C0.540527 27.8294 0 24.9792 0 22C0 19.0208 0.540527 16.1706 1.62158 13.4492C2.70264 10.7279 4.15739 8.38607 5.98584 6.42383C7.81429 4.46159 9.99642 2.90039 12.5322 1.74023C15.068 0.580078 17.724 0 20.5 0C23.276 0 25.932 0.580078 28.4678 1.74023C31.0036 2.90039 33.1857 4.46159 35.0142 6.42383C36.8426 8.38607 38.2974 10.7279 39.3784 13.4492C40.4595 16.1706 41 19.0208 41 22C41 24.9792 40.4595 27.8294 39.3784 30.5508C38.2974 33.2721 36.8426 35.6139 35.0142 37.5762C33.1857 39.5384 31.0036 41.0996 28.4678 42.2598C25.932 43.4199 23.276 44 20.5 44ZM20.52 38.5C21.2274 38.5 21.828 38.235 22.3218 37.7051C22.8156 37.1751 23.0625 36.5306 23.0625 35.7715C23.0625 35.0124 22.8156 34.3607 22.3218 33.8164C21.828 33.2721 21.2274 33 20.52 33C19.8127 33 19.2054 33.2721 18.6982 33.8164C18.1911 34.3607 17.9375 35.0124 17.9375 35.7715C17.9375 36.5306 18.1911 37.1751 18.6982 37.7051C19.2054 38.235 19.8127 38.5 20.52 38.5ZM20.5 5.5C17.6706 5.5 15.2549 6.57422 13.2529 8.72266C11.251 10.8711 10.25 13.4635 10.25 16.5C10.25 17.2734 10.4969 17.9251 10.9907 18.4551C11.4845 18.985 12.0851 19.25 12.7925 19.25C13.4998 19.25 14.1071 18.985 14.6143 18.4551C15.1214 17.9251 15.375 17.2734 15.375 16.5C15.375 14.9818 15.8755 13.6855 16.8765 12.6113C17.8774 11.5371 19.0853 11 20.5 11C21.9147 11 23.1226 11.5371 24.1235 12.6113C25.1245 13.6855 25.625 14.9818 25.625 16.5C25.625 18.0182 25.1245 19.3145 24.1235 20.3887C23.1226 21.4629 21.9147 22 20.5 22C19.806 22 19.2054 22.5658 18.6982 23.6973C18.1911 24.8288 17.9375 26.0964 17.9375 27.5C17.9375 28.2734 18.1844 28.9251 18.6782 29.4551C19.172 29.985 19.7793 30.25 20.5 30.25C21.2207 30.25 21.828 29.985 22.3218 29.4551C22.8156 28.9251 23.0625 28.2734 23.0625 27.5V27.1562C25.3047 26.526 27.1465 25.2227 28.5879 23.2461C30.0293 21.2695 30.75 19.0208 30.75 16.5C30.75 13.4635 29.749 10.8711 27.7471 8.72266C25.7451 6.57422 23.3294 5.5 20.5 5.5Z" fill="#4A74B8"/>
</svg>
