<svg width="20" height="16" viewBox="0 0 20 16" fill="none" xmlns="http://www.w3.org/2000/svg">
<path d="M13.3342 11.0755L15.0564 9.73304C15.2883 9.55446 15.5818 9.43222 15.9012 9.38116C16.2205 9.33009 16.552 9.3524 16.8555 9.44536L18.9544 10.0986C19.261 10.1956 19.5239 10.3612 19.71 10.5745C19.8961 10.7879 19.997 11.0393 20 11.2973V14.2939C19.9982 14.4694 19.9509 14.6427 19.8609 14.8036C19.7709 14.9644 19.6401 15.1094 19.4763 15.2298C19.3125 15.3502 19.1192 15.4435 18.9079 15.5041C18.6967 15.5647 18.4719 15.5913 18.2471 15.5824C3.5392 14.8692 0.57149 5.1602 0.010239 1.44439C-0.0158147 1.26192 0.00798983 1.07722 0.0800864 0.902431C0.152183 0.727646 0.270938 0.56674 0.428538 0.4303C0.586138 0.293861 0.779012 0.184979 0.994471 0.110818C1.20993 0.0366568 1.44309 -0.00110225 1.67862 2.44938e-05H5.3921C5.72347 0.000789102 6.04698 0.078816 6.321 0.224069C6.59503 0.369322 6.80704 0.575159 6.92977 0.815104L7.7678 2.45126C7.89101 2.68683 7.92245 2.94548 7.85818 3.1949C7.79391 3.44432 7.63679 3.67345 7.40645 3.85367L5.68426 5.19616C5.68426 5.19616 6.67606 10.4283 13.3342 11.0755Z" fill="#343483"/>
</svg>
