<svg width="32" height="28" viewBox="0 0 32 28" fill="none" xmlns="http://www.w3.org/2000/svg">
<path d="M10.052 27.4731C22.128 27.4731 28.734 17.2029 28.734 8.31219C28.734 8.0248 28.734 7.7333 28.722 7.4459C30.0081 6.49029 31.1181 5.30718 32 3.95202C30.7986 4.4957 29.5255 4.85403 28.222 5.01537C29.5951 4.17298 30.6234 2.84754 31.116 1.28541C29.826 2.06984 28.414 2.62051 26.942 2.91329C25.9524 1.83151 24.6428 1.11486 23.2162 0.874352C21.7895 0.633844 20.3254 0.8829 19.0507 1.58294C17.7759 2.28298 16.7616 3.39494 16.1649 4.74658C15.5682 6.09821 15.4224 7.6141 15.75 9.05941C13.1395 8.92506 10.5856 8.22899 8.25409 7.01634C5.92254 5.80369 3.86537 4.10155 2.216 2.02032C1.37868 3.50467 1.12315 5.26048 1.50129 6.93119C1.87944 8.60191 2.86291 10.0623 4.252 11.0157C3.21108 10.9794 2.19304 10.6925 1.28 10.1782V10.2706C1.28179 11.8255 1.80661 13.3322 2.76575 14.5358C3.72488 15.7395 5.0595 16.5663 6.544 16.8765C5.98053 17.0359 5.39846 17.1153 4.814 17.1126C4.40197 17.1139 3.99076 17.0747 3.586 16.9956C4.00557 18.3341 4.82255 19.5045 5.92249 20.3427C7.02244 21.1808 8.35027 21.6449 9.72 21.6698C7.39311 23.5457 4.5188 24.5631 1.56 24.5581C1.03864 24.5604 0.517646 24.5296 0 24.4658C3.00303 26.4309 6.4906 27.4743 10.052 27.4731Z" fill="#4A74B8"/>
</svg>
