<svg width="34" height="25" viewBox="0 0 34 25" fill="none" xmlns="http://www.w3.org/2000/svg">
<path d="M3.75779 0.902832H30.2422C32.7407 0.902832 34 2.0636 34 4.42449V20.9901C34 23.3313 32.7407 24.5117 30.2422 24.5117H3.75779C1.25926 24.5117 0 23.3313 0 20.9901V4.42449C0 2.0636 1.25926 0.902832 3.75779 0.902832ZM16.99 17.8225L30.4621 6.94277C30.9418 6.54929 31.3216 5.64428 30.7219 4.83765C30.1423 4.03101 29.0829 4.01134 28.3833 4.50319L16.99 12.0974L5.6167 4.50319C4.91711 4.01134 3.85773 4.03101 3.27807 4.83765C2.67842 5.64428 3.0582 6.54929 3.53792 6.94277L16.99 17.8225Z" fill="#4A74B8"/>
</svg>
