<svg width="34" height="39" viewBox="0 0 34 39" fill="none" xmlns="http://www.w3.org/2000/svg">
<path d="M5.67013 1.83037L8.25182 1.17711C10.6752 0.565637 13.2593 1.55501 14.2982 3.48819L16.3592 7.33936C17.2566 9.01617 16.7599 10.9892 15.126 12.216L10.5816 15.6304C10.8599 17.6737 11.7285 19.6847 13.1825 21.6635C14.564 23.5781 16.4169 25.2538 18.6314 26.5914L24.0899 25.1482C26.1605 24.6031 28.4135 25.2317 29.6804 26.7072L32.6388 30.1444C34.1144 31.8611 33.8505 34.2273 32.0198 35.6819L30.0571 37.241C28.104 38.7924 25.3136 39.3564 22.7343 38.7184C16.6423 37.2144 11.0423 32.7498 5.93165 25.3248C0.813848 17.8883 -0.99286 11.576 0.51393 6.39556C1.14736 4.21551 3.10762 2.47793 5.67013 1.83037Z" fill="#4A74B8"/>
</svg>
