<svg width="28" height="30" viewBox="0 0 28 30" fill="none" xmlns="http://www.w3.org/2000/svg">
<path d="M27.9098 9.26826C27.8941 8.06148 27.6737 6.86669 27.2583 5.73735C26.8981 4.78476 26.348 3.91963 25.6431 3.19725C24.9382 2.47487 24.0939 1.91111 23.1644 1.54201C22.0765 1.12352 20.9272 0.897236 19.7654 0.872792C18.2697 0.804277 17.7954 0.785156 13.9984 0.785156C10.2015 0.785156 9.71479 0.785156 8.2299 0.872792C7.06866 0.897416 5.91991 1.1237 4.83252 1.54201C3.9028 1.91086 3.05845 2.47452 2.35349 3.19693C1.64854 3.91935 1.09849 4.78461 0.73856 5.73735C0.329369 6.85133 0.109032 8.02879 0.0870724 9.21887C0.0202132 10.7533 0 11.2393 0 15.1303C0 19.0213 -1.15846e-08 19.5184 0.0870724 21.0417C0.110395 22.2335 0.329631 23.4094 0.73856 24.5264C1.0991 25.4788 1.64955 26.3437 2.35474 27.0658C3.05994 27.788 3.90436 28.3514 4.83407 28.7201C5.91849 29.1554 7.06744 29.3979 8.23145 29.4371C9.72879 29.5057 10.203 29.5264 14 29.5264C17.797 29.5264 18.2837 29.5264 19.7685 29.4371C20.9303 29.4137 22.0796 29.1879 23.1675 28.7695C24.0968 28.4 24.9408 27.8361 25.6457 27.1138C26.3506 26.3914 26.9008 25.5265 27.2614 24.5742C27.6704 23.4588 27.8896 22.2829 27.9129 21.0895C27.9798 19.5567 28 19.0707 28 15.1781C27.9969 11.2871 27.9969 10.7931 27.9098 9.26826ZM13.9891 22.4885C10.018 22.4885 6.80098 19.1918 6.80098 15.1223C6.80098 11.0528 10.018 7.75615 13.9891 7.75615C15.8955 7.75615 17.7239 8.53223 19.0719 9.91365C20.4199 11.2951 21.1773 13.1687 21.1773 15.1223C21.1773 17.0759 20.4199 18.9495 19.0719 20.331C17.7239 21.7124 15.8955 22.4885 13.9891 22.4885ZM21.4634 9.20134C20.5351 9.20134 19.7872 8.43333 19.7872 7.48369C19.7872 7.25822 19.8305 7.03497 19.9147 6.82667C19.9989 6.61837 20.1223 6.42911 20.2779 6.26968C20.4335 6.11026 20.6182 5.9838 20.8214 5.89752C21.0247 5.81124 21.2426 5.76683 21.4626 5.76683C21.6826 5.76683 21.9004 5.81124 22.1037 5.89752C22.307 5.9838 22.4917 6.11026 22.6472 6.26968C22.8028 6.42911 22.9262 6.61837 23.0104 6.82667C23.0946 7.03497 23.1379 7.25822 23.1379 7.48369C23.1379 8.43333 22.3885 9.20134 21.4634 9.20134Z" fill="#4A74B8"/>
</svg>
