<svg width="240" height="86" viewBox="0 0 240 86" fill="none" xmlns="http://www.w3.org/2000/svg">
<path d="M0 72.7589L27.9526 0H55.9051L27.9526 72.7589H0Z" fill="#4A74B8"/>
<path d="M55.9051 72.7589L83.8577 0H111.81L83.8577 72.7589H55.9051Z" fill="#F8384F"/>
<path d="M99.6963 72.7589L127.649 0H155.601L127.649 72.7589H99.6963Z" fill="#C4C4C4"/>
<path d="M145.375 72.7589L173.328 0H201.28L173.328 72.7589H145.375Z" fill="#C4C4C4"/>
<path d="M145.375 72.6085L132.527 15.4638L155.812 4.55466e-05L172.305 72.6085L155.942 72.6085L145.375 72.6085Z" fill="#C4C4C4"/>
<path d="M191.053 72.6085L178.205 15.4638L201.491 4.55466e-05L217.984 72.6085L201.621 72.6085L191.053 72.6085Z" fill="#C4C4C4"/>
<path d="M44.6559 29.3164L41.9289 36.475L39.2018 43.6336H67.1543L69.8814 36.475L72.6085 29.3164H44.6559Z" fill="#343483"/>
</svg>
